<?xml version="1.0" encoding="utf-8"?>
<!-- Generator: Adobe Illustrator 23.0.6, SVG Export Plug-In . SVG Version: 6.00 Build 0)  -->
<svg version="1.1" id="Layer_1" xmlns="http://www.w3.org/2000/svg" xmlns:xlink="http://www.w3.org/1999/xlink" x="0px" y="0px"
	 viewBox="0 0 43.19 44.05" style="enable-background:new 0 0 43.19 44.05;" xml:space="preserve">
<style type="text/css">
	.st0{fill:#2A5326;}
</style>
<path class="st0" d="M31.63,42.04c-0.19-0.07-0.54-0.16-1.03-0.27c-1.12-0.24-3.35-0.63-4.23-1.2c-0.52-0.35-1.39-0.9-1.87-1.52
	L20,39.08c1.12,1.82,2.38,3.1,3.77,3.8c1.53,0.77,3.54,1.16,6.04,1.16c0.56,0,1.06-0.03,1.48-0.08s0.63-0.38,0.63-0.98
	C31.92,42.42,31.83,42.1,31.63,42.04z"/>
<path class="st0" d="M12.81,44.04c-0.46,0-0.78-0.16-0.96-0.48c-0.19-0.32-0.28-0.66-0.28-1.03c0.05-0.78,0.23-1.21,0.55-1.31
	c0.32-0.09,0.71-0.14,1.17-0.14c1.47,0,2.5-0.27,3.1-0.79c0.59-0.53,0.98-1.19,1.13-2c0.16-0.8,0.24-1.64,0.24-2.51v-8.62
	c0-0.32-0.24-1.07-0.72-2.24c-0.48-1.17-1.1-2.54-1.86-4.1c-0.76-1.56-1.55-3.17-2.38-4.83c-0.83-1.65-1.6-3.16-2.31-4.51
	s-1.27-2.4-1.69-3.13c-0.96-1.74-2.02-3-3.17-3.75C4.5,3.82,3.19,3.29,1.72,2.96C1.08,2.83,0.63,2.71,0.38,2.62
	C0.13,2.53,0,2.12,0,1.38c0-0.78,0.28-1.2,0.83-1.27C1.38,0.03,2.02,0,2.76,0c3.26,0,5.89,0.5,7.89,1.52c2,1.01,3.77,2.9,5.34,5.65
	c1.33,2.48,2.54,4.9,3.62,7.24c1.08,2.34,2.28,4.73,3.62,7.17h0.21l7.65-15.09c0.78-1.56,0.87-2.51,0.28-2.86
	c-0.6-0.36-1.7-0.53-3.31-0.53c-0.46,0-0.85-0.05-1.17-0.14c-0.32-0.09-0.5-0.53-0.55-1.31c0-0.37,0.09-0.71,0.28-1.03
	c0.19-0.32,0.48-0.48,0.9-0.48c1.47,0.05,2.75,0.09,3.82,0.14c1.08,0.05,2.31,0.07,3.68,0.07c1.38,0,2.51-0.02,3.41-0.07
	c0.9-0.05,2.08-0.09,3.55-0.14c0.46,0,0.78,0.16,0.96,0.48s0.28,0.67,0.28,1.03c-0.05,0.78-0.22,1.22-0.52,1.31
	c-0.3,0.09-0.7,0.14-1.2,0.14c-1.74,0-3.17,0.38-4.27,1.13c-1.1,0.76-2.09,1.94-2.96,3.55l-7.78,14.69
	c-0.41,0.88-0.76,1.61-1.03,2.21s-0.48,1.22-0.62,1.86c-0.14,0.64-0.21,1.5-0.21,2.55v6.69c0.04,0.76,0.11,1.48,0.22,2.19
	c0.16,1.04,0.69,2,1.55,2.61c0.49,0.34,1.18,1.32,2.33,1.32c0.5,0,0.99,0.37,1.29,0.46c0.3,0.09,0.76-0.6,0.81,0.18
	c0,0.37-0.12,0.71-0.3,1.02c-0.18,0.31-0.95,0.48-1.37,0.49c-0.02,0-0.03,0-0.05,0c-1.45-0.09-2.32-0.15-3.65-0.17
	c-1.33-0.02-2.69-0.04-4.07-0.04C18.65,43.83,15.8,43.9,12.81,44.04z"/>
<path class="st0" d="M27.04,31.15c0,0-0.85-0.68-1.04-3.56c-0.18-2.76,1.62-5.24,3.81-6.72c2.03-1.37,6.6-2.47,7.22-2.69
	c0.41-0.14,0.95-0.37,1.27-0.51c0.14-0.06,0.29,0.02,0.32,0.17c0.05,0.29,0.14,0.74,0.2,1.18c0.25,1.93,0.39,3.92-0.08,5.83
	c-1.04,4.2-4.04,6.78-7.86,7.41c-0.55,0.09-1.1,0.13-1.66,0.12c-0.17-0.01-0.32,0.07-0.41,0.22c-0.17,0.28-0.45,0.82-0.55,1.64
	c-0.11,0.89-0.05,1.63-0.01,2c0.02,0.19-0.07,0.37-0.25,0.44c-0.2,0.08-0.48,0.11-0.82-0.11c-0.07-0.05-0.11-0.13-0.11-0.22
	c0.01-0.53,0.2-2.47,0.66-4.58c0.72-3.31,3.69-7.17,7.14-9.39c0.1-0.06,0.03-0.21-0.08-0.17C33.06,22.88,29.06,25.01,27.04,31.15z"
	/>
</svg>
